<svg width="720" height="420" viewBox="0 0 720 420" xmlns="http://www.w3.org/2000/svg" font-family="Segoe UI, Helvetica, Arial, sans-serif">
  <rect width="720" height="420" rx="16" fill="#0d1117"/>
  <circle cx="110" cy="120" r="58" fill="none" stroke="#2d333b" stroke-width="10"/>
  <circle cx="110" cy="120" r="58" fill="none" stroke="#f0883e" stroke-width="10" stroke-linecap="round" stroke-dasharray="14.6 364.4" transform="rotate(-90 110 120)"/>
  <text x="110" y="120" fill="#ffffff" font-size="42" font-weight="700" text-anchor="middle" dominant-baseline="central">30</text>
  
  <text x="210" y="78" fill="#e6edf3" font-size="19" font-weight="600">Easy</text>
  <text x="690" y="78" fill="#e6edf3" font-size="17" font-weight="600" text-anchor="end">26 / 205</text>
  <rect x="210" y="92" width="480" height="6" rx="3" fill="#2d333b"/>
  <rect x="210" y="92" width="61" height="6" rx="3" fill="#3fb950"/>
  <text x="210" y="144" fill="#e6edf3" font-size="19" font-weight="600">Medium</text>
  <text x="690" y="144" fill="#e6edf3" font-size="17" font-weight="600" text-anchor="end">4 / 270</text>
  <rect x="210" y="158" width="480" height="6" rx="3" fill="#2d333b"/>
  <rect x="210" y="158" width="7" height="6" rx="3" fill="#d29922"/>
  <text x="210" y="210" fill="#e6edf3" font-size="19" font-weight="600">Hard</text>
  <text x="690" y="210" fill="#e6edf3" font-size="17" font-weight="600" text-anchor="end">0 / 194</text>
  <rect x="210" y="224" width="480" height="6" rx="3" fill="#2d333b"/>
  <rect x="210" y="224" width="0" height="6" rx="3" fill="#f85149"/>
  <line x1="30" y1="268" x2="690" y2="268" stroke="#2d333b" stroke-width="1"/>
  <text x="30" y="305" fill="#8b949e" font-size="14" font-weight="700" letter-spacing="3">COMPETITIONS</text>
  <text x="30" y="338" fill="#e6edf3" font-size="20" font-weight="700">CodeRun Summer Challenge</text>
  <text x="30" y="380" fill="#ffffff" font-size="22" font-weight="700">10 / 15</text>
  <text x="30" y="402" fill="#8b949e" font-size="14">Solved</text>
  <text x="280" y="380" fill="#ffffff" font-size="22" font-weight="700">859.87</text>
  <text x="280" y="402" fill="#8b949e" font-size="14">Points</text>
  <text x="480" y="380" fill="#ffffff" font-size="22" font-weight="700">#268 / 2,638</text>
  <text x="480" y="402" fill="#8b949e" font-size="14">Place</text>
</svg>